<svg width="32" height="32" viewBox="0 0 32 32" fill="none" xmlns="http://www.w3.org/2000/svg">
<circle cx="16" cy="16" r="16" fill="#FBF2ED"/>
<path fill-rule="evenodd" clip-rule="evenodd" d="M7.00977 9.83789C7.00977 9.28561 7.45748 8.83789 8.00977 8.83789H24C24.5523 8.83789 25 9.28561 25 9.83789V21.1621C25 22.2667 24.1046 23.1621 23 23.1621H9C7.89543 23.1621 7 22.2667 7 21.1621V10.1621C7 10.1145 7.00333 10.0676 7.00977 10.0218V9.83789ZM9 12.0616V21.1621H23V12.062L18.1215 16.9405C16.9499 18.1121 15.0504 18.1121 13.8789 16.9405L9 12.0616ZM10.5723 10.8055H21.428L16.7073 15.5263C16.3168 15.9168 15.6836 15.9168 15.2931 15.5263L10.5723 10.8055Z" fill="#E29271"/>
</svg>
