<svg width="32" height="32" viewBox="0 0 32 32" fill="none" xmlns="http://www.w3.org/2000/svg">
<circle cx="16" cy="16" r="16" fill="#FBF2ED"/>
<path fill-rule="evenodd" clip-rule="evenodd" d="M16 11C13.2386 11 11 13.2386 11 16C11 18.7614 13.2386 21 16 21C18.7614 21 21 18.7614 21 16C21 13.2386 18.7614 11 16 11ZM13 16C13 17.6569 14.3431 19 16 19C17.6569 19 19 17.6569 19 16C19 14.3431 17.6569 13 16 13C14.3431 13 13 14.3431 13 16Z" fill="#E29271"/>
<path d="M22 9C21.4477 9 21 9.44772 21 10C21 10.5523 21.4477 11 22 11C22.5523 11 23 10.5523 23 10C23 9.44772 22.5523 9 22 9Z" fill="#E29271"/>
<path fill-rule="evenodd" clip-rule="evenodd" d="M9 5C6.79086 5 5 6.79086 5 9V23C5 25.2091 6.79086 27 9 27H23C25.2091 27 27 25.2091 27 23V9C27 6.79086 25.2091 5 23 5H9ZM23 7H9C7.89543 7 7 7.89543 7 9V23C7 24.1046 7.89543 25 9 25H23C24.1046 25 25 24.1046 25 23V9C25 7.89543 24.1046 7 23 7Z" fill="#E29271"/>
</svg>
